<svg width="729" height="276" viewBox="0 0 729 276" fill="none" xmlns="http://www.w3.org/2000/svg">
<g clip-path="url(#clip0_8_240)">
<path d="M134.978 268.7C126.45 265.602 118.616 260.857 111.925 254.735C105.233 248.613 99.8151 241.234 95.98 233.019C92.145 224.805 89.968 215.916 89.5737 206.862C89.1793 197.807 90.5752 188.763 93.6817 180.247L94.036 179.277L195.342 142.449L196.654 146.158C197.775 149.235 198.653 152.394 199.279 155.608C200.504 161.939 201.119 168.373 201.116 174.821C201.114 194.217 195.495 213.198 184.936 229.476C174.377 245.754 159.328 258.634 141.605 266.564L140.385 267.022L135.333 268.844L134.978 268.7Z" fill="url(#paint0_linear_8_240)"/>
<path d="M99.81 275.318C99.0226 275.318 98.2353 275.318 97.4479 275.318H95.9913C94.679 275.318 93.4455 275.187 92.1858 275.083C91.5428 275.083 90.8735 274.978 90.2699 274.899C80.9015 273.976 71.7116 271.73 62.975 268.228C50.3936 263.143 38.966 255.58 29.3732 245.99C19.7803 236.4 12.2186 224.98 7.13866 212.41C4.84337 206.71 3.08606 200.808 1.88965 194.782C1.75843 194.114 1.62719 193.471 1.50909 192.737C1.39099 192.003 1.25977 191.322 1.15479 190.614L1.08916 190.273C0.826707 188.609 0.616759 186.918 0.446166 185.214C0.367431 184.376 0.288678 183.524 0.223066 182.685C0.157453 181.846 0.104969 180.981 0.0656017 180.064C0.0262341 179.146 -0.0131159 178.386 -0.0393609 177.521C-0.065606 176.656 -0.0393609 175.739 -0.0393609 174.9V174.73C-0.0393609 174.114 -0.0393609 173.524 -0.0393609 172.921C-0.0393609 172.318 -0.0393609 172.043 -0.0393609 171.61V171.178L0.0525064 169.317C0.118119 168.006 0.223088 166.774 0.328068 165.529L0.538034 163.642C0.616769 162.869 0.721751 162.095 0.826731 161.309C0.931711 160.523 1.03669 159.828 1.15479 159.094V158.976C1.14858 158.863 1.14858 158.749 1.15479 158.635C1.2729 157.836 1.41725 157.037 1.57472 156.237C1.73219 155.438 1.86339 154.704 2.03398 153.943C2.25706 152.908 2.50642 151.86 2.75574 150.824C3.22816 148.95 3.7137 147.207 4.2386 145.503L7.61106 136.25V136.172L7.71606 135.962L8.18845 134.651L57.2405 0.0261993L73.5649 5.8584C93.8174 13.2272 110.31 28.3286 119.415 47.841C128.52 67.3534 129.493 89.6789 122.118 109.907L101.739 165.831L101.66 166.053L96.1488 181.178C93.1616 189.368 91.8196 198.067 92.1993 206.775C92.579 215.484 94.6731 224.033 98.3619 231.933C102.051 239.833 107.262 246.93 113.698 252.818C120.134 258.706 127.668 263.27 135.871 266.249L139.256 267.481L129.021 271.203C123.278 272.908 117.393 274.088 111.436 274.729C110.859 274.807 110.242 274.873 109.626 274.925C108.418 275.03 107.198 275.122 105.978 275.187C105.383 275.187 104.766 275.214 104.127 275.266H102.526H99.9018L99.81 275.318Z" fill="url(#paint1_linear_8_240)"/>
</g>
<path d="M243.208 195V87H263.608V175.95H310.108V195H243.208ZM353.01 197.4C346.66 197.4 341.485 196.325 337.485 194.175C333.485 192.025 330.36 189.3 328.11 186C325.91 182.7 324.335 179.275 323.385 175.725C322.435 172.125 321.86 168.85 321.66 165.9C321.46 162.95 321.36 160.8 321.36 159.45V114H342.06V152.25C342.06 154.1 342.16 156.475 342.36 159.375C342.56 162.225 343.185 165.1 344.235 168C345.285 170.9 346.985 173.325 349.335 175.275C351.735 177.225 355.11 178.2 359.46 178.2C361.21 178.2 363.085 177.925 365.085 177.375C367.085 176.825 368.96 175.775 370.71 174.225C372.46 172.625 373.885 170.3 374.985 167.25C376.135 164.15 376.71 160.1 376.71 155.1L388.41 160.65C388.41 167.05 387.11 173.05 384.51 178.65C381.91 184.25 377.985 188.775 372.735 192.225C367.535 195.675 360.96 197.4 353.01 197.4ZM379.26 195V168.15H376.71V114H397.26V195H379.26ZM515.721 195V147.15C515.721 141.8 514.446 137.65 511.896 134.7C509.396 131.7 505.921 130.2 501.471 130.2C498.621 130.2 496.146 130.875 494.046 132.225C491.946 133.525 490.296 135.375 489.096 137.775C487.946 140.125 487.371 142.85 487.371 145.95L478.821 140.25C478.821 134.7 480.121 129.8 482.721 125.55C485.371 121.3 488.896 118 493.296 115.65C497.746 113.25 502.671 112.05 508.071 112.05C517.321 112.05 524.296 114.8 528.996 120.3C533.746 125.75 536.121 132.9 536.121 141.75V195H515.721ZM418.071 195V114H436.071V140.85H438.621V195H418.071ZM466.971 195V147.15C466.971 141.8 465.696 137.65 463.146 134.7C460.646 131.7 457.171 130.2 452.721 130.2C448.471 130.2 445.046 131.675 442.446 134.625C439.896 137.525 438.621 141.3 438.621 145.95L430.071 139.95C430.071 134.65 431.396 129.9 434.046 125.7C436.696 121.5 440.246 118.175 444.696 115.725C449.196 113.275 454.221 112.05 459.771 112.05C466.121 112.05 471.321 113.4 475.371 116.1C479.471 118.8 482.496 122.4 484.446 126.9C486.396 131.4 487.371 136.35 487.371 141.75V195H466.971ZM591.809 197.25C583.509 197.25 576.184 195.475 569.834 191.925C563.534 188.325 558.584 183.4 554.984 177.15C551.434 170.85 549.659 163.65 549.659 155.55C549.659 146.7 551.409 139 554.909 132.45C558.409 125.9 563.234 120.825 569.384 117.225C575.534 113.575 582.609 111.75 590.609 111.75C599.109 111.75 606.334 113.75 612.284 117.75C618.234 121.75 622.634 127.375 625.484 134.625C628.334 141.875 629.334 150.4 628.484 160.2H608.309V152.7C608.309 144.45 606.984 138.525 604.334 134.925C601.734 131.275 597.459 129.45 591.509 129.45C584.559 129.45 579.434 131.575 576.134 135.825C572.884 140.025 571.259 146.25 571.259 154.5C571.259 162.05 572.884 167.9 576.134 172.05C579.434 176.15 584.259 178.2 590.609 178.2C594.609 178.2 598.034 177.325 600.884 175.575C603.734 173.825 605.909 171.3 607.409 168L627.809 173.85C624.759 181.25 619.934 187 613.334 191.1C606.784 195.2 599.609 197.25 591.809 197.25ZM564.959 160.2V145.05H618.659V160.2H564.959ZM698.421 195V156.75C698.421 154.9 698.321 152.55 698.121 149.7C697.921 146.8 697.296 143.9 696.246 141C695.196 138.1 693.471 135.675 691.071 133.725C688.721 131.775 685.371 130.8 681.021 130.8C679.271 130.8 677.396 131.075 675.396 131.625C673.396 132.175 671.521 133.25 669.771 134.85C668.021 136.4 666.571 138.7 665.421 141.75C664.321 144.8 663.771 148.85 663.771 153.9L652.071 148.35C652.071 141.95 653.371 135.95 655.971 130.35C658.571 124.75 662.471 120.225 667.671 116.775C672.921 113.325 679.521 111.6 687.471 111.6C693.821 111.6 698.996 112.675 702.996 114.825C706.996 116.975 710.096 119.7 712.296 123C714.546 126.3 716.146 129.75 717.096 133.35C718.046 136.9 718.621 140.15 718.821 143.1C719.021 146.05 719.121 148.2 719.121 149.55V195H698.421ZM643.071 195V114H661.221V140.85H663.771V195H643.071Z" fill="#1E1E1E"/>
<defs>
<linearGradient id="paint0_linear_8_240" x1="9.5" y1="258.5" x2="195.045" y2="141.819" gradientUnits="userSpaceOnUse">
<stop stop-color="#B2EE76"/>
<stop offset="1" stop-color="#FAFF00"/>
</linearGradient>
<linearGradient id="paint1_linear_8_240" x1="57.6796" y1="1.33984" x2="174.243" y2="390.077" gradientUnits="userSpaceOnUse">
<stop stop-color="#75D6FF"/>
<stop offset="1" stop-color="#8FFF00"/>
</linearGradient>
<clipPath id="clip0_8_240">
<rect width="201.208" height="275.318" fill="white"/>
</clipPath>
</defs>
</svg>
