<svg width="42" height="55" viewBox="0 0 42 55" fill="none" xmlns="http://www.w3.org/2000/svg">
<path d="M10.3117 51.2529L10.3144 51.2544C13.4025 52.9618 16.9694 53.8077 21 53.8077C25.0306 53.8077 28.5975 52.9618 31.6856 51.2544L31.6883 51.2529C34.7733 49.5229 37.1833 47.0951 38.9117 43.9782C40.6435 40.8551 41.5 37.1984 41.5 33.0251V8C41.5 3.85786 38.1421 0.5 34 0.5H33.7092C28.974 0.5 25.4237 4.83399 26.3559 9.47653L30.953 32.3701C31.0386 32.7964 31.0839 33.2158 31.0644 33.6258C31.0005 34.9673 30.743 36.1987 30.2964 37.3242L30.2963 37.3242L30.2938 37.3309C29.7927 38.6483 29.088 39.7761 28.1818 40.7209C27.2743 41.667 26.2052 42.3993 24.9699 42.919L24.967 42.9203C23.7601 43.4371 22.4397 43.6983 21 43.6983C19.607 43.6983 18.2957 43.4493 17.0621 42.9537C15.8512 42.4344 14.7815 41.7021 13.8502 40.7542C12.9435 39.8083 12.2272 38.6789 11.7036 37.3598C11.1839 36.0501 10.9198 34.5837 10.9198 32.9539V5.74562C10.9198 2.85289 8.56319 0.514013 5.67054 0.535867C2.80863 0.557489 0.5 2.88363 0.5 5.74562V33.0251C0.5 37.1984 1.35655 40.8551 3.08832 43.9782C4.81668 47.0951 7.22666 49.5229 10.3117 51.2529Z" fill="#FF9345" stroke="#FF9345"/>
</svg>
