<svg width="30" height="30" viewBox="0 0 30 30" fill="none" xmlns="http://www.w3.org/2000/svg">
<path d="M10.7987 23.1309L10.8038 23.1334C11.9862 23.7216 13.3271 24 14.8 24C16.2729 24 17.6138 23.7216 18.7962 23.1334L18.7962 23.1335L18.8013 23.1309C19.9792 22.5366 20.9183 21.6908 21.5926 20.5968C22.2762 19.4877 22.6 18.2081 22.6 16.7959V9.39536C22.6 7.52016 21.0798 6 19.2046 6C17.0312 6 15.4174 8.01373 15.8908 10.135L17.3492 16.6692C17.3854 16.8312 17.3939 16.9411 17.3872 17.0208C17.3639 17.2984 17.3009 17.5438 17.2038 17.7637L17.2007 17.7708L17.1977 17.7779C17.0727 18.0736 16.9008 18.3197 16.6804 18.5264C16.4565 18.7364 16.1875 18.9047 15.8617 19.028L15.8617 19.028L15.8562 19.0301C15.5486 19.1486 15.1999 19.2136 14.8 19.2136C14.4182 19.2136 14.0691 19.153 13.7459 19.0373C13.4319 18.9151 13.1614 18.7471 12.927 18.5333C12.7053 18.3243 12.5285 18.0747 12.3962 17.7746C12.273 17.4954 12.2027 17.1671 12.2027 16.7741V8.61229C12.2027 7.16868 11.0273 6.00117 9.58368 6.01098C8.15392 6.0207 7 7.1825 7 8.61229V16.7959C7 18.2081 7.3238 19.4877 8.00741 20.5968C8.68169 21.6908 9.62082 22.5366 10.7987 23.1309ZM11.2491 22.2382L11.2491 22.2381L11.2491 22.2382Z" stroke="#231900" stroke-width="2"/>
</svg>
