<svg width="345" height="190" viewBox="0 0 345 190" fill="none" xmlns="http://www.w3.org/2000/svg">
<g filter="url(#filter0_d_1348_9391)">
<g clip-path="url(#clip0_1348_9391)">
<path d="M6.58592 71.4646C104.546 87.2003 169.229 176.303 151.102 270.453C132.975 364.603 38.8914 428.203 -59.0685 412.467C-157.028 396.732 -221.712 307.628 -203.585 213.479C-185.458 119.329 -91.3739 55.729 6.58592 71.4646Z" stroke="#E9E8E6"/>
<path d="M2.62261 87.5249C91.7383 101.84 150.579 182.898 134.089 268.544C117.6 354.19 32.0129 412.048 -57.1028 397.733C-146.218 383.418 -205.059 302.36 -188.57 216.714C-172.08 131.068 -86.4931 73.2099 2.62261 87.5249Z" stroke="#E9E8E6"/>
<ellipse rx="4.95104" ry="5.12126" transform="matrix(0.189084 -0.982085 0.987448 0.158618 109.688 127.783)" fill="#E9E8E6"/>
<path d="M232.277 118.032C231.958 118.763 231.258 119.302 230.488 119.408C229.719 119.514 228.908 119.183 228.414 118.562C228.52 119.003 227.985 119.444 227.594 119.238C227.746 120.537 226.943 121.889 225.754 122.337C224.565 122.785 223.109 122.282 222.418 121.186C221.448 121.331 220.416 120.791 219.955 119.897C219.441 120.536 218.471 120.723 217.769 120.316C217.743 121.163 217.039 121.892 216.234 122.053C215.43 122.214 214.581 121.872 213.987 121.29C213.392 120.707 213.027 119.91 212.815 119.092C211.61 119.458 210.208 118.981 209.449 117.946C209.026 118.238 208.528 118.418 208.006 118.466C207.414 118.522 206.765 118.261 206.228 118C206.228 118 205.33 117.55 205.275 117.563L206.131 117.527C206.688 117.436 206.76 117.011 207.074 116.786C207.698 116.339 208.425 116.715 208.595 117.167C208.881 116.362 209.262 115.827 210.044 115.538C210.435 115.396 210.857 115.344 211.273 115.385C211.69 115.425 212.091 115.559 212.443 115.773C212.867 114.722 214.288 114.267 215.21 114.887C215.563 113.032 217.09 111.473 218.89 111.137C220.69 110.8 222.644 111.706 223.604 113.319C223.888 113.238 224.19 113.227 224.48 113.289C224.77 113.35 225.038 113.482 225.259 113.671C225.712 114.055 225.966 114.677 225.917 115.281C226.976 114.84 228.147 115.265 229.041 116C229.617 115.021 231.882 115.256 232.492 116.93C232.492 116.93 233.443 117.488 234.6 117.31C234.6 117.31 234.095 118.297 232.277 118.032Z" fill="white"/>
<path d="M313.558 68.8243C314.214 70.3916 315.657 71.5473 317.24 71.7745C318.824 72.0016 320.495 71.2908 321.512 69.9613C321.292 70.906 322.393 71.8506 323.199 71.4097C322.887 74.1928 324.54 77.0909 326.987 78.0502C329.435 79.0095 332.433 77.9326 333.855 75.5837C335.853 75.895 337.977 74.738 338.927 72.8206C339.984 74.1915 341.982 74.591 343.427 73.7198C343.481 75.5343 344.931 77.0976 346.587 77.4423C348.242 77.787 349.99 77.0535 351.214 75.8055C352.439 74.5576 353.19 72.85 353.627 71.097C356.108 71.8813 358.994 70.8579 360.556 68.6399C361.427 69.2671 362.453 69.6524 363.527 69.7556C364.747 69.8758 366.083 69.316 367.188 68.7562C367.188 68.7562 369.037 67.7928 369.15 67.8209L367.387 67.7434C366.241 67.547 366.092 66.6371 365.445 66.1561C364.161 65.1981 362.664 66.0024 362.315 66.9724C361.726 65.2475 360.942 64.0998 359.331 63.4812C358.526 63.1774 357.659 63.0647 356.8 63.1522C355.942 63.2397 355.117 63.5249 354.392 63.9849C353.52 61.7322 350.595 60.7568 348.696 62.0863C347.968 58.1113 344.825 54.771 341.119 54.0495C337.413 53.328 333.39 55.2694 331.414 58.7259C330.829 58.5515 330.207 58.5292 329.61 58.6613C329.013 58.7933 328.461 59.0752 328.007 59.4795C327.074 60.3025 326.552 61.636 326.651 62.9294C324.47 61.9847 322.061 62.8959 320.221 64.4699C319.034 62.3735 314.371 62.8759 313.114 66.4634C313.114 66.4634 311.157 67.6592 308.775 67.2771C308.775 67.2744 309.814 69.3935 313.558 68.8243Z" fill="white"/>
<g filter="url(#filter1_f_1348_9391)">
<path d="M126.334 52.2265C124.496 56.5103 120.457 59.6694 116.022 60.2902C111.587 60.9111 106.91 58.9682 104.062 55.3344C104.677 57.9164 101.594 60.4984 99.339 59.2932C100.212 66.9004 95.5841 74.8218 88.7309 77.4439C81.8778 80.0661 73.4832 77.1226 69.5004 70.7022C63.9078 71.5532 57.9583 68.3905 55.3006 63.1498C52.3391 66.8968 46.7465 67.9888 42.6992 65.6076C42.5473 70.5671 38.4886 74.84 33.8528 75.7822C29.217 76.7245 24.323 74.7195 20.8945 71.3085C17.4661 67.8975 15.3627 63.2301 14.1401 58.4386C7.19207 60.5824 -0.887405 57.7849 -5.26125 51.7225C-7.70042 53.4368 -10.5733 54.4899 -13.5799 54.772C-16.997 55.1006 -20.7368 53.5704 -23.8311 52.0402C-23.8311 52.0402 -29.0099 49.4071 -29.325 49.4838L-24.3892 49.272C-21.181 48.7351 -20.7634 46.2481 -18.9523 44.9333C-15.3568 42.3148 -11.1652 44.5133 -10.1856 47.1647C-8.53784 42.4499 -6.34332 39.3128 -1.83279 37.6219C0.423349 36.7915 2.85096 36.4835 5.25378 36.7227C7.6566 36.9619 9.96719 37.7416 11.9987 38.9987C14.4401 32.8414 22.6296 30.1754 27.9451 33.8091C29.9839 22.9443 38.7848 13.8141 49.1613 11.842C59.5378 9.86991 70.8027 15.1764 76.3346 24.6242C77.9746 24.1475 79.715 24.0866 81.3867 24.4475C83.0584 24.8084 84.6048 25.5788 85.8758 26.684C88.4879 28.9337 89.9497 32.5784 89.6725 36.1136C95.7777 33.5316 102.524 36.0223 107.677 40.3244C110.999 34.5943 124.056 35.9675 127.575 45.7733C127.575 45.7733 133.054 49.0419 139.725 47.9974C139.725 47.9901 136.817 53.7822 126.334 52.2265Z" fill="white"/>
</g>
<path d="M197.803 32.4374L194.305 28.245L199.642 29.9905L200.816 24.5L202.637 29.5044L208.062 26.9691L205.182 31.7138L210.45 34.1166L204.748 34.669L205.939 40.1208L201.874 36.3095L198.63 40.8333L198.861 35.376L193.2 35.6688L197.803 32.4374Z" fill="white" fill-opacity="0.22"/>
<path d="M310.272 159.089L307.823 156.155L311.559 157.377L312.381 153.533L313.656 157.036L317.453 155.262L315.437 158.583L319.125 160.265L315.134 160.651L315.968 164.468L313.122 161.8L310.851 164.967L311.013 161.146L307.05 161.351L310.272 159.089Z" fill="white" fill-opacity="0.22"/>
<path d="M322.054 108.141C322.163 107.246 322.354 106.363 322.625 105.499C322.817 104.615 323.088 103.748 323.435 102.907C323.323 103.8 323.13 104.682 322.86 105.544C322.668 106.429 322.398 107.298 322.054 108.141V108.141Z" fill="#263238"/>
<path d="M282.017 110.751C281.951 110.751 281.338 108.672 280.65 106.07C279.962 103.469 279.458 101.35 279.524 101.332C279.59 101.314 280.202 103.411 280.89 106.012C281.578 108.614 282.082 110.733 282.017 110.751Z" fill="#263238"/>
<path d="M228.892 140.933C228.014 140.707 227.16 140.409 226.338 140.041C225.486 139.739 224.666 139.364 223.887 138.921C224.763 139.147 225.616 139.446 226.437 139.813C227.288 140.117 228.11 140.492 228.892 140.933V140.933Z" fill="#263238"/>
<path d="M315.085 122.268C315.019 122.268 315.476 116.985 316.107 110.484C316.739 103.982 317.304 98.7172 317.375 98.7261C317.446 98.735 316.984 104.005 316.352 110.506C315.721 117.007 315.155 122.273 315.085 122.268Z" fill="#263238"/>
<path d="M346.555 180.191C346.555 180.191 355.038 167.354 362.191 166.086C369.345 164.819 376.626 165.966 381.451 161.722C386.701 157.109 390.877 150.393 396.23 150.036C396.23 150.036 392.578 146.703 385.815 152.231C379.053 157.76 375.683 158.237 369.769 156.537C363.855 154.837 352.898 150.509 340.268 163.378L338.968 178.549L346.555 180.191Z" fill="#FF725E"/>
<path d="M362.959 161.035C362.881 161.045 362.802 161.045 362.724 161.035H362.059C361.767 161.035 361.414 161.035 361.004 161.066C360.594 161.098 360.127 161.102 359.618 161.178L358.812 161.276C358.534 161.312 358.252 161.374 357.95 161.428C357.352 161.517 356.729 161.687 356.065 161.847C354.645 162.242 353.265 162.756 351.942 163.382C350.631 164.031 349.385 164.789 348.219 165.649C347.709 166.026 347.22 166.426 346.753 166.849C346.536 167.046 346.315 167.229 346.117 167.42L345.57 168.014C345.207 168.362 344.929 168.714 344.661 169.013C344.432 169.265 344.218 169.529 344.02 169.803L343.624 170.307C343.53 170.423 343.478 170.481 343.468 170.477C343.498 170.409 343.536 170.345 343.581 170.285L343.94 169.75C344.127 169.466 344.331 169.194 344.552 168.933C344.811 168.625 345.085 168.259 345.443 167.902L345.99 167.327C346.178 167.13 346.4 166.943 346.616 166.738C347.045 166.323 347.559 165.935 348.082 165.511C350.42 163.733 353.118 162.427 356.008 161.673C356.673 161.517 357.309 161.352 357.893 161.267C358.195 161.223 358.487 161.16 358.77 161.129L359.581 161.049C360.094 160.982 360.57 160.986 360.994 160.968C361.347 160.947 361.702 160.947 362.055 160.968L362.724 161.004C362.804 161.003 362.883 161.013 362.959 161.035Z" fill="#263238"/>
<path d="M341.97 166.64C342.081 166.479 342.211 166.329 342.356 166.194C342.615 165.899 343.011 165.493 343.525 165.016C346.222 162.511 349.464 160.595 353.025 159.402C353.704 159.179 354.265 159.018 354.656 158.925C354.856 158.866 355.061 158.824 355.268 158.8C355.083 158.893 354.887 158.965 354.684 159.014C354.302 159.13 353.742 159.313 353.087 159.558C349.596 160.825 346.396 162.718 343.661 165.132C343.134 165.578 342.719 165.979 342.441 166.252C342.298 166.396 342.14 166.526 341.97 166.64V166.64Z" fill="#263238"/>
<path d="M373.379 121.639L338.416 164.601L326.941 153.191L373.379 121.639Z" fill="#FF725E"/>
<path d="M349.293 143.718C349.34 143.767 346.239 146.636 342.37 150.125C338.501 153.615 335.301 156.413 335.273 156.372C335.245 156.332 338.327 153.459 342.201 149.965C346.074 146.471 349.246 143.673 349.293 143.718Z" fill="#263238"/>
<path d="M340.094 157.34C340.042 157.3 341.89 155.109 344.218 152.472C346.546 149.835 348.482 147.707 348.534 147.751C348.586 147.796 346.739 149.982 344.406 152.619C342.073 155.256 340.146 157.38 340.094 157.34Z" fill="#263238"/>
<path d="M337.232 215.841C354.296 199.684 354.296 173.488 337.232 157.331C320.168 141.174 292.502 141.174 275.438 157.331C258.374 173.488 258.374 199.684 275.438 215.841C292.502 231.999 320.168 231.999 337.232 215.841Z" fill="#FF725E"/>
<path d="M279.476 154.324C279.476 154.324 282.705 139.483 278.463 133.901C274.222 128.319 268.096 124.37 267.714 118.145C267.285 111.376 269.161 103.786 265.556 100.029C265.556 100.029 270.631 100.029 271.484 108.427C272.337 116.824 274.434 119.394 279.967 122.036C285.499 124.678 296.564 128.729 296.305 146.279L286.182 158.099L279.476 154.324Z" fill="#FF725E"/>
<path d="M281.588 129.742C281.656 129.779 281.719 129.824 281.776 129.876L282.285 130.287C282.555 130.502 282.811 130.731 283.053 130.974C283.341 131.255 283.685 131.563 283.996 131.946L284.524 132.535C284.703 132.745 284.868 132.982 285.051 133.209C285.44 133.705 285.801 134.219 286.135 134.749C287.68 137.183 288.678 139.893 289.066 142.709C289.142 143.356 289.227 143.972 289.231 144.552C289.231 144.842 289.264 145.123 289.255 145.391C289.246 145.659 289.255 145.917 289.231 146.163C289.231 146.658 289.161 147.1 289.123 147.501C289.092 147.834 289.04 148.165 288.967 148.492C288.92 148.742 288.873 148.938 288.84 149.112C288.831 149.186 288.811 149.258 288.779 149.326C288.767 149.254 288.767 149.18 288.779 149.108C288.803 148.938 288.826 148.729 288.859 148.479C288.915 148.151 288.953 147.82 288.972 147.488C288.972 147.1 289.052 146.663 289.043 146.172C289.043 145.926 289.043 145.672 289.043 145.404C289.043 145.137 289.015 144.86 289.005 144.574C289.005 143.999 288.897 143.392 288.821 142.749C288.602 141.364 288.252 140.001 287.775 138.675C287.279 137.356 286.658 136.082 285.918 134.869C285.56 134.32 285.23 133.794 284.863 133.334C284.684 133.102 284.528 132.888 284.349 132.66L283.84 132.067C283.524 131.674 283.195 131.366 282.898 131.076C282.69 130.824 282.468 130.583 282.233 130.353L281.762 129.907C281.635 129.809 281.583 129.751 281.588 129.742Z" fill="#263238"/>
<path d="M269.481 107.958C269.503 108.031 269.512 108.106 269.509 108.181C269.509 108.355 269.509 108.565 269.538 108.819C269.566 109.408 269.599 110.202 269.641 111.166C269.732 113.745 270.095 116.309 270.725 118.819C270.917 119.524 271.21 120.201 271.597 120.831C271.963 121.415 272.382 121.968 272.851 122.482C273.658 123.351 274.543 124.152 275.494 124.878C276.305 125.503 276.993 125.972 277.464 126.302C277.718 126.46 277.961 126.635 278.19 126.824C278.19 126.824 278.115 126.797 277.983 126.721L277.412 126.378C276.941 126.07 276.215 125.619 275.386 125.008C274.409 124.292 273.503 123.494 272.676 122.625C272.196 122.101 271.766 121.538 271.39 120.943C270.989 120.297 270.684 119.602 270.485 118.877C269.85 116.353 269.508 113.77 269.467 111.175C269.439 110.18 269.434 109.39 269.467 108.819C269.467 108.565 269.467 108.373 269.467 108.181C269.462 108.106 269.467 108.032 269.481 107.958V107.958Z" fill="#263238"/>
<path d="M292.676 147.524C292.642 147.329 292.629 147.132 292.639 146.935C292.639 146.551 292.639 146.002 292.573 145.324C292.355 141.786 291.419 138.321 289.816 135.119C289.509 134.503 289.25 134.013 289.057 133.678C288.951 133.509 288.861 133.331 288.788 133.147C288.924 133.297 289.043 133.46 289.142 133.633C289.359 133.959 289.646 134.441 289.971 135.048C291.673 138.237 292.62 141.74 292.747 145.311C292.771 145.993 292.747 146.547 292.747 146.926C292.743 147.127 292.72 147.327 292.676 147.524V147.524Z" fill="#263238"/>
<path d="M283.369 150.375C283.327 150.375 283.567 149.626 283.812 148.403C284.452 145.203 284.291 141.905 283.341 138.774C282.983 137.578 282.667 136.86 282.709 136.846C282.813 136.999 282.898 137.162 282.964 137.333C283.171 137.789 283.354 138.255 283.51 138.729C284.56 141.87 284.723 145.216 283.982 148.434C283.873 148.918 283.738 149.396 283.576 149.867C283.528 150.043 283.459 150.214 283.369 150.375V150.375Z" fill="#263238"/>
<path d="M302.855 95L296.795 148.934L313.416 148.189L302.855 95Z" fill="#FF725E"/>
<path d="M304.019 126.819C304.085 126.819 304.34 130.871 304.59 135.873C304.839 140.875 304.99 144.931 304.92 144.936C304.849 144.94 304.594 140.884 304.345 135.882C304.095 130.88 303.949 126.824 304.019 126.819Z" fill="#263238"/>
<path d="M303.129 114.915C303.312 116.076 303.411 117.248 303.426 118.422C303.525 119.591 303.544 120.766 303.482 121.938C303.298 120.777 303.198 119.605 303.181 118.431C303.084 117.261 303.067 116.086 303.129 114.915V114.915Z" fill="#263238"/>
<path d="M300.881 142.611C300.81 142.611 300.956 139.818 301.201 136.364C301.446 132.911 301.706 130.14 301.772 130.144C301.838 130.149 301.696 132.937 301.446 136.391C301.197 139.845 300.947 142.616 300.881 142.611Z" fill="#263238"/>
<path d="M263.383 179.959C263.383 179.959 255.145 166.97 248.034 165.578C240.923 164.185 233.604 165.198 228.864 160.874C223.708 156.167 219.665 149.38 214.321 148.925C214.321 148.925 218.044 145.659 224.688 151.303C231.333 156.948 234.698 157.492 240.65 155.899C246.602 154.306 257.615 150.174 270.004 163.271L271.003 178.442L263.383 179.959Z" fill="#FF725E"/>
<path d="M247.36 160.513C247.436 160.496 247.514 160.489 247.591 160.491L248.26 160.464C248.614 160.447 248.968 160.447 249.321 160.464C249.731 160.491 250.202 160.491 250.735 160.567L251.545 160.665C251.823 160.701 252.111 160.768 252.412 160.821C253.02 160.915 253.647 161.089 254.297 161.267C257.172 162.076 259.844 163.43 262.148 165.247C262.662 165.694 263.166 166.077 263.562 166.501C263.774 166.707 263.991 166.898 264.179 167.099L264.712 167.684C265.019 168.019 265.309 168.369 265.579 168.732C265.796 168.996 265.996 169.271 266.178 169.558L266.526 170.098C266.569 170.16 266.606 170.225 266.635 170.294C266.635 170.294 266.573 170.241 266.484 170.125L266.097 169.607C265.937 169.384 265.73 169.107 265.471 168.808C265.211 168.509 264.938 168.148 264.58 167.791L264.038 167.224C263.85 167.028 263.633 166.84 263.416 166.635C262.997 166.225 262.474 165.832 262.002 165.413C259.711 163.627 257.07 162.288 254.231 161.473C253.576 161.298 252.954 161.12 252.346 161.026C252.045 160.968 251.762 160.901 251.484 160.861L250.683 160.75C250.174 160.665 249.707 160.647 249.297 160.611C248.948 160.578 248.597 160.561 248.246 160.562H247.582C247.506 160.557 247.431 160.541 247.36 160.513V160.513Z" fill="#263238"/>
<path d="M222.883 152.236C222.883 152.236 222.954 152.28 223.062 152.383L223.534 152.829L225.287 154.494C227.196 156.333 229.296 157.986 231.554 159.429C232.201 159.822 232.9 160.132 233.633 160.352C234.322 160.545 235.026 160.684 235.739 160.767C236.954 160.888 238.177 160.909 239.396 160.83C240.442 160.772 241.281 160.678 241.865 160.616C242.166 160.57 242.47 160.544 242.775 160.54C242.7 160.565 242.623 160.583 242.544 160.593C242.393 160.625 242.167 160.66 241.88 160.705C241.3 160.794 240.466 160.915 239.41 160.995C238.181 161.102 236.945 161.102 235.716 160.995C234.987 160.917 234.267 160.781 233.562 160.589C232.807 160.366 232.087 160.048 231.422 159.643C229.151 158.193 227.056 156.511 225.174 154.628C224.443 153.914 223.868 153.325 223.472 152.91L223.029 152.396C222.974 152.349 222.925 152.295 222.883 152.236Z" fill="#263238"/>
<path d="M268.242 166.492C268.078 166.371 267.928 166.233 267.794 166.082C267.521 165.801 267.115 165.408 266.597 164.939C263.904 162.472 260.732 160.522 257.257 159.197C256.592 158.938 256.05 158.75 255.669 158.621C255.469 158.564 255.275 158.491 255.089 158.402C255.296 158.424 255.5 158.469 255.697 158.536C256.088 158.634 256.639 158.804 257.318 159.04C259.081 159.67 260.766 160.478 262.346 161.45C263.925 162.421 265.386 163.552 266.705 164.823C267.21 165.31 267.601 165.716 267.851 166.019C268 166.162 268.131 166.321 268.242 166.492V166.492Z" fill="#263238"/>
<path d="M263.435 174.56C263.393 174.56 263.044 173.877 262.346 172.82C260.531 170.054 258.057 167.73 255.122 166.033C254 165.381 253.237 165.056 253.275 165.02C253.462 165.063 253.643 165.129 253.812 165.216C254.297 165.415 254.769 165.64 255.226 165.89C258.242 167.533 260.753 169.892 262.511 172.735C262.841 173.279 263.086 173.73 263.237 174.051C263.322 174.214 263.388 174.384 263.435 174.56V174.56Z" fill="#263238"/>
<path d="M238.303 121.969L272.398 165.551L284.099 154.351L238.303 121.969Z" fill="#FF725E"/>
<path d="M261.941 144.481C261.988 144.432 265.108 147.283 268.906 150.844C272.705 154.404 275.754 157.327 275.706 157.372C275.659 157.416 272.535 154.569 268.737 151.009C264.938 147.448 261.889 144.525 261.941 144.481Z" fill="#263238"/>
<path d="M252.417 136.547C253.381 137.292 254.294 138.093 255.15 138.948C256.067 139.747 256.928 140.603 257.728 141.509C256.762 140.768 255.849 139.967 254.995 139.113C254.074 138.315 253.213 137.457 252.417 136.547V136.547Z" fill="#263238"/>
<path d="M270.867 158.264C270.815 158.304 268.925 156.154 266.625 153.467C264.326 150.781 262.544 148.559 262.596 148.523C262.648 148.488 264.542 150.63 266.837 153.32C269.132 156.011 270.923 158.224 270.867 158.264Z" fill="#263238"/>
<path d="M209 184.43L265.442 193.694L265.749 177.942L209 184.43Z" fill="#FF725E"/>
<path d="M242.61 185.416C242.61 185.349 246.899 185.371 252.186 185.465C257.474 185.559 261.762 185.684 261.762 185.751C261.762 185.818 257.474 185.791 252.181 185.697C246.889 185.604 242.61 185.483 242.61 185.416Z" fill="#263238"/>
<path d="M229.999 185.474C231.236 185.383 232.478 185.366 233.718 185.425C234.957 185.409 236.195 185.469 237.426 185.604C236.191 185.701 234.95 185.719 233.713 185.657C232.472 185.676 231.231 185.615 229.999 185.474V185.474Z" fill="#263238"/>
<path d="M259.048 189.432C259.048 189.494 256.107 189.178 252.497 188.718C248.887 188.258 245.97 187.826 245.98 187.772C245.989 187.719 248.92 188.031 252.53 188.486C256.14 188.941 259.057 189.356 259.048 189.432Z" fill="#263238"/>
<path d="M346.758 184.524C346.758 184.524 346.729 184.31 346.696 183.89C346.663 183.471 346.63 182.841 346.513 182.025C346.028 177.907 344.85 173.89 343.025 170.124C342.126 168.245 341.067 166.438 339.858 164.721C336.909 160.526 333.145 156.901 328.765 154.038C323.448 150.57 317.347 148.327 310.952 147.488C305.533 146.783 300.022 147.086 294.726 148.38C292.867 148.848 291.043 149.431 289.264 150.125C281.693 153.126 275.231 158.183 270.692 164.658C269.507 166.343 268.464 168.114 267.573 169.955C267.101 170.878 266.72 171.833 266.319 172.793C265.918 173.752 265.603 174.738 265.32 175.738C264.72 177.747 264.294 179.799 264.048 181.873C263.535 186.085 263.747 190.348 264.674 194.497C265.13 196.541 265.76 198.546 266.559 200.494C266.936 201.471 267.398 202.403 267.846 203.345C268.294 204.286 268.817 205.179 269.373 206.053C270.444 207.807 271.659 209.478 273.006 211.051C278.172 217.093 285.109 221.553 292.945 223.871C294.784 224.404 296.657 224.825 298.553 225.129C300.402 225.414 302.269 225.576 304.142 225.615C307.728 225.713 311.311 225.366 314.802 224.585C321.087 223.18 326.937 220.402 331.885 216.473C335.955 213.238 339.341 209.301 341.861 204.871C342.894 203.054 343.768 201.16 344.477 199.209C345.08 197.572 345.566 195.9 345.933 194.202C346.437 191.851 346.715 189.461 346.762 187.063C346.8 186.242 346.762 185.612 346.762 185.193C346.762 184.774 346.762 184.55 346.762 184.55C346.762 184.55 346.762 184.769 346.786 185.189C346.81 185.608 346.847 186.242 346.819 187.063C346.776 191.215 346.023 195.333 344.59 199.258C343.888 201.217 343.018 203.118 341.989 204.942C339.473 209.405 336.083 213.373 331.998 216.633C327.031 220.584 321.159 223.381 314.849 224.803C309.497 225.99 303.954 226.183 298.525 225.37C296.613 225.07 294.723 224.651 292.87 224.116C284.98 221.787 277.997 217.293 272.808 211.203C271.45 209.622 270.228 207.942 269.151 206.178C268.59 205.286 268.105 204.394 267.61 203.452C267.115 202.511 266.696 201.565 266.314 200.587C265.515 198.628 264.884 196.61 264.429 194.555C263.975 192.471 263.688 190.357 263.572 188.232C263.479 186.105 263.555 183.975 263.798 181.86C264.046 179.771 264.476 177.706 265.084 175.684C265.362 174.676 265.73 173.699 266.088 172.721C266.446 171.744 266.88 170.794 267.346 169.87C268.245 168.02 269.294 166.238 270.485 164.542C275.054 158.033 281.555 152.949 289.17 149.933C290.96 149.238 292.795 148.654 294.665 148.184C300.467 146.744 306.529 146.509 312.436 147.494C318.343 148.48 323.955 150.664 328.888 153.896C333.277 156.778 337.048 160.425 340 164.64C342.212 167.826 343.927 171.298 345.089 174.948C345.819 177.253 346.32 179.618 346.588 182.012C346.696 182.828 346.701 183.457 346.744 183.881C346.786 184.305 346.758 184.524 346.758 184.524Z" fill="#263238"/>
<path d="M343.468 182.418C343.455 182.382 343.447 182.344 343.445 182.306C343.445 182.217 343.416 182.105 343.398 181.972C343.35 181.677 343.317 181.235 343.214 180.682C342.97 179.103 342.624 177.54 342.177 176.001C341.526 173.713 340.652 171.488 339.566 169.353C338.934 168.093 338.216 166.874 337.417 165.703C336.575 164.439 335.621 163.244 334.566 162.133C332.534 159.969 330.269 158.012 327.808 156.292C326.727 155.553 325.599 154.878 324.43 154.271C323.873 153.998 323.346 153.717 322.813 153.499C322.549 153.383 322.295 153.267 322.04 153.16L321.282 152.865C319.719 152.27 318.115 151.781 316.479 151.402C315.904 151.263 315.447 151.178 315.141 151.107L314.792 151.031C314.752 151.022 314.713 151.01 314.674 150.995C314.715 150.99 314.756 150.99 314.797 150.995L315.15 151.053C315.462 151.112 315.919 151.178 316.503 151.303C318.154 151.658 319.774 152.134 321.347 152.727L322.111 153.012L322.893 153.351C323.43 153.566 323.968 153.847 324.528 154.115C325.71 154.718 326.849 155.392 327.94 156.131C330.422 157.85 332.703 159.814 334.745 161.99C335.812 163.111 336.774 164.317 337.62 165.596C338.422 166.776 339.14 168.006 339.769 169.277C340.848 171.426 341.711 173.667 342.347 175.97C342.776 177.517 343.091 179.09 343.289 180.678C343.379 181.235 343.393 181.677 343.426 181.976C343.426 182.11 343.426 182.221 343.449 182.311C343.461 182.345 343.468 182.381 343.468 182.418Z" fill="white"/>
<path d="M343.968 186.92C343.973 186.964 343.973 187.009 343.968 187.054C343.968 187.156 343.968 187.286 343.968 187.451C343.968 187.799 343.968 188.317 343.883 188.973C343.723 190.839 343.408 192.691 342.941 194.51C342.658 195.666 342.262 196.911 341.786 198.231C341.263 199.632 340.654 201.003 339.962 202.337C336.8 208.499 331.876 213.698 325.749 217.343C324.423 218.134 323.051 218.855 321.64 219.502C320.41 220.057 319.152 220.553 317.87 220.988C316.005 221.619 314.091 222.109 312.144 222.452C311.461 222.59 310.919 222.639 310.556 222.697L310.141 222.751H310L310.136 222.72L310.546 222.644C310.909 222.568 311.447 222.505 312.125 222.354C314.047 221.97 315.937 221.454 317.78 220.81C318.954 220.408 320.207 219.895 321.55 219.302C322.951 218.652 324.312 217.928 325.627 217.133C331.708 213.495 336.602 208.329 339.764 202.212C340.457 200.889 341.069 199.531 341.597 198.142C342.069 196.83 342.483 195.594 342.776 194.448C343.249 192.652 343.585 190.827 343.779 188.986C343.864 188.33 343.874 187.812 343.911 187.469L343.944 187.072C343.943 187.02 343.951 186.969 343.968 186.92V186.92Z" fill="white"/>
<path d="M267.191 189.021C267.244 189.207 267.279 189.397 267.294 189.588C267.36 189.999 267.436 190.516 267.53 191.132C267.737 192.435 268.081 194.229 268.609 196.179C269.137 198.129 269.74 199.86 270.221 201.087L270.796 202.551C270.883 202.724 270.948 202.907 270.989 203.095C270.877 202.935 270.784 202.765 270.711 202.586C270.541 202.252 270.315 201.761 270.056 201.145C269.386 199.544 268.823 197.905 268.369 196.237C267.918 194.565 267.581 192.867 267.36 191.154C267.276 190.498 267.224 189.963 267.2 189.597C267.173 189.406 267.17 189.213 267.191 189.021V189.021Z" fill="#263238"/>
<path d="M267.346 178.478C267.376 179.655 267.324 180.832 267.191 182.003C267.137 183.179 267.003 184.35 266.79 185.51C266.76 184.333 266.812 183.155 266.946 181.985C267 180.809 267.134 179.637 267.346 178.478Z" fill="#263238"/>
<path d="M315.593 183.658C315.881 183.243 318.105 184.707 320.985 184.43C323.864 184.154 325.791 182.369 326.168 182.73C326.343 182.886 326.088 183.623 325.254 184.435C324.171 185.485 322.729 186.136 321.186 186.273C319.642 186.409 318.098 186.022 316.828 185.18C315.834 184.524 315.452 183.846 315.593 183.658Z" fill="#263238"/>
<path d="M286.87 183.484C287.295 183.172 289.137 185.144 292.172 185.657C295.207 186.17 297.723 185.01 297.983 185.443C298.115 185.639 297.639 186.255 296.531 186.804C295.069 187.502 293.404 187.725 291.795 187.437C290.198 187.162 288.743 186.389 287.662 185.242C286.866 184.354 286.672 183.631 286.87 183.484Z" fill="#263238"/>
<path d="M306.974 198.039C306.974 197.897 308.609 197.593 311.281 197.254C311.955 197.183 312.596 197.044 312.695 196.607C312.794 196.17 312.559 195.451 312.224 194.711L310.16 189.842C307.29 182.913 305.207 177.21 305.499 177.103C305.791 176.996 308.364 182.525 311.234 189.459C311.922 191.168 312.587 192.796 313.214 194.367C313.482 195.094 313.93 195.915 313.595 196.884C313.5 197.111 313.351 197.315 313.16 197.48C312.969 197.645 312.741 197.766 312.493 197.834C312.118 197.935 311.732 197.99 311.343 197.999C308.656 198.151 306.988 198.182 306.974 198.039Z" fill="#263238"/>
<g opacity="0.2">
<path d="M281.677 190.324C284.349 191.958 287.191 194.541 288.473 197.624C289.25 199.49 289.575 201.774 288.284 203.363C287.82 203.885 287.236 204.3 286.577 204.577C285.918 204.853 285.201 204.985 284.481 204.96C283.039 204.899 281.635 204.505 280.391 203.813C278.019 202.597 276.014 200.827 274.566 198.673C273.599 197.331 273.027 195.769 272.907 194.148C272.856 193.34 273.006 192.531 273.344 191.786C273.682 191.042 274.199 190.382 274.853 189.86C276.206 188.879 279.425 188.687 281.833 190.423" fill="black"/>
</g>
<g opacity="0.2">
<path d="M335.245 195.487C333.473 197.991 330.697 200.637 327.422 201.797C325.438 202.497 323.016 202.77 321.362 201.52C320.819 201.071 320.392 200.511 320.111 199.883C319.83 199.254 319.703 198.574 319.741 197.893C319.831 196.528 320.271 195.205 321.022 194.037C322.351 191.814 324.255 189.947 326.555 188.611C327.989 187.72 329.648 187.205 331.362 187.121C332.217 187.086 333.068 187.242 333.848 187.575C334.628 187.908 335.315 188.41 335.853 189.04C336.871 190.338 337.012 193.386 335.137 195.635" fill="black"/>
</g>
<path d="M316.234 180.508C316.326 180.388 316.434 180.28 316.555 180.187C316.862 179.912 317.185 179.653 317.521 179.41C318.025 179.041 318.588 178.751 319.189 178.549C319.939 178.291 320.758 178.277 321.517 178.509C322.262 178.784 322.884 179.293 323.28 179.95C323.6 180.471 323.829 181.038 323.958 181.628C324.047 182.02 324.113 182.416 324.156 182.815C324.189 182.961 324.197 183.112 324.18 183.261C324.137 183.261 324.048 182.645 323.789 181.672C323.639 181.109 323.403 180.569 323.086 180.071C322.707 179.463 322.125 178.992 321.432 178.732C320.723 178.517 319.959 178.526 319.255 178.759C318.673 178.944 318.124 179.21 317.625 179.549C316.762 180.138 316.263 180.552 316.234 180.508Z" fill="#263238"/>
<path d="M288.52 180.887C288.665 180.786 288.823 180.703 288.991 180.642C289.425 180.441 289.87 180.262 290.325 180.106C291.007 179.866 291.723 179.726 292.45 179.691C293.354 179.639 294.253 179.855 295.023 180.307C295.772 180.799 296.313 181.526 296.55 182.36C296.748 183.024 296.826 183.714 296.781 184.403C296.757 184.861 296.707 185.316 296.63 185.769C296.615 185.938 296.577 186.104 296.517 186.264C296.475 186.264 296.578 185.545 296.607 184.399C296.625 183.73 296.533 183.063 296.333 182.422C296.1 181.643 295.591 180.964 294.891 180.499C294.159 180.077 293.311 179.87 292.455 179.905C291.749 179.93 291.051 180.05 290.381 180.262C289.227 180.624 288.534 180.927 288.52 180.887Z" fill="#263238"/>
<g opacity="0.1">
<path d="M316.121 180.553C316.008 180.883 315.429 180.825 315.264 180.517C315.2 180.354 315.179 180.178 315.203 180.006C315.227 179.833 315.295 179.669 315.4 179.526C316.23 178.094 318.968 176.818 320.688 176.979C322.408 177.139 323.548 177.75 324.208 179.866C324.265 180.053 324.467 180.169 324.514 180.356C324.545 180.448 324.544 180.547 324.511 180.637C324.478 180.728 324.415 180.807 324.331 180.861C323.996 181.044 323.647 180.678 323.421 180.383C323.041 179.888 322.549 179.478 321.981 179.185C321.413 178.892 320.783 178.722 320.137 178.687C319.492 178.652 318.846 178.754 318.246 178.985C317.647 179.216 317.11 179.57 316.673 180.022" fill="black"/>
</g>
<g opacity="0.1">
<path d="M288.548 180.901C288.36 180.272 288.972 179.687 289.575 179.357C290.439 178.872 291.42 178.608 292.424 178.59C293.428 178.572 294.419 178.801 295.301 179.254C297.026 180.218 298.011 182.333 297.37 184.131C297.304 184.314 297.182 184.528 296.974 184.533C296.767 184.537 296.607 184.265 296.55 184.042C296.258 182.882 296.079 181.606 295.169 180.762C294.758 180.415 294.272 180.156 293.745 180.002C293.218 179.848 292.662 179.803 292.116 179.87C291.025 180.006 289.961 180.291 288.958 180.718" fill="black"/>
</g>
<path d="M322.205 182.079C322.135 182.079 322.111 181.534 321.857 180.927C321.602 180.32 321.239 179.905 321.291 179.861C321.651 180.112 321.929 180.455 322.091 180.85C322.253 181.246 322.292 181.676 322.205 182.092V182.079Z" fill="white"/>
<path d="M310.037 194.755C309.976 194.778 308.723 191.632 307.238 187.723C305.754 183.814 304.609 180.637 304.67 180.615C304.731 180.593 305.989 183.738 307.469 187.647C308.949 191.556 310.108 194.733 310.037 194.755Z" fill="white"/>
<path d="M295.066 184.399C294.99 184.399 295 183.64 294.726 182.761C294.453 181.882 294.024 181.244 294.085 181.204C294.493 181.632 294.792 182.142 294.962 182.695C295.132 183.248 295.167 183.831 295.066 184.399V184.399Z" fill="white"/>
<path d="M342.177 144.914C341.737 145.191 341.28 145.446 340.81 145.677C339.714 146.285 338.654 146.949 337.634 147.667C336.621 148.392 335.652 149.171 334.731 150C334.366 150.362 333.98 150.704 333.577 151.027C333.577 151.027 333.652 150.902 333.831 150.701C334.01 150.5 334.269 150.219 334.609 149.884C335.5 149.012 336.463 148.208 337.488 147.479C338.513 146.753 339.595 146.103 340.726 145.534C341.164 145.32 341.522 145.155 341.772 145.056C341.899 144.99 342.035 144.942 342.177 144.914V144.914Z" fill="white"/>
<path d="M350.042 158.479C349.634 158.722 349.212 158.946 348.779 159.148C346.747 160.206 344.876 161.521 343.219 163.057C342.889 163.387 342.541 163.702 342.177 163.998C342.439 163.611 342.747 163.255 343.096 162.936C343.897 162.128 344.772 161.388 345.711 160.727C346.646 160.071 347.64 159.494 348.68 159.001C349.111 158.776 349.568 158.6 350.042 158.479Z" fill="white"/>
<path d="M262.441 191.873C262.441 191.935 255.065 190.909 245.989 189.579C236.913 188.25 229.561 187.121 229.57 187.058C229.58 186.996 236.946 188.022 246.027 189.352C255.108 190.682 262.441 191.811 262.441 191.873Z" fill="white"/>
<path d="M260.056 173.814C259.963 173.744 259.879 173.663 259.806 173.573L259.142 172.837C258.553 172.208 257.704 171.293 256.611 170.213C255.342 168.938 253.963 167.765 252.488 166.706C250.686 165.406 248.639 164.444 246.456 163.873C244.249 163.379 242.005 163.05 239.745 162.887C237.889 162.738 236.048 162.461 234.236 162.057C233.013 161.772 231.835 161.334 230.734 160.754C230.343 160.553 230.075 160.343 229.877 160.227C229.775 160.169 229.68 160.1 229.594 160.022C229.703 160.068 229.807 160.123 229.905 160.187C230.108 160.294 230.376 160.486 230.782 160.673C231.888 161.218 233.063 161.629 234.278 161.896C236.082 162.271 237.912 162.526 239.754 162.659C242.03 162.81 244.288 163.137 246.507 163.636C248.718 164.215 250.789 165.193 252.605 166.519C254.086 167.593 255.464 168.787 256.724 170.089C257.803 171.186 258.609 172.119 259.198 172.766C259.467 173.074 259.67 173.324 259.844 173.515C259.925 173.608 259.996 173.709 260.056 173.814V173.814Z" fill="white"/>
<path d="M296.644 151.08C296.527 151.115 296.407 151.144 296.286 151.165L295.245 151.375L294.486 151.504C294.213 151.562 293.92 151.647 293.605 151.727C292.978 151.897 292.248 152.049 291.475 152.325L290.254 152.722C289.83 152.865 289.401 153.053 288.953 153.222C288.049 153.552 287.134 154.007 286.159 154.467C281.968 156.558 278.257 159.415 275.24 162.874C274.571 163.686 273.911 164.44 273.383 165.212C273.115 165.591 272.832 165.948 272.601 166.314C272.37 166.68 272.153 167.028 271.941 167.367C271.498 168.023 271.192 168.67 270.89 169.219C270.744 169.495 270.598 169.75 270.48 169.991C270.362 170.232 270.268 170.437 270.179 170.66L269.75 171.579C269.706 171.69 269.651 171.796 269.585 171.896C269.616 171.782 269.655 171.67 269.703 171.561C269.802 171.329 269.929 171.017 270.089 170.624C270.174 170.415 270.268 170.178 270.372 169.946C270.475 169.714 270.626 169.442 270.763 169.161C271.06 168.603 271.357 167.952 271.79 167.282L272.441 166.216C272.672 165.85 272.95 165.488 273.218 165.105C273.737 164.324 274.396 163.556 275.066 162.735C276.584 161.003 278.271 159.409 280.103 157.974C281.961 156.571 283.952 155.332 286.05 154.275C287.035 153.829 287.964 153.383 288.878 153.044C289.349 152.874 289.759 152.691 290.188 152.553L291.423 152.169C292.128 151.946 292.846 151.757 293.572 151.602C293.892 151.526 294.184 151.451 294.462 151.397L295.221 151.272L296.272 151.107C296.395 151.086 296.52 151.077 296.644 151.08V151.08Z" fill="white"/>
<path d="M264 141.688C264.194 141.818 264.372 141.968 264.533 142.134L265.947 143.343C267.139 144.365 268.807 145.748 270.711 147.203C272.615 148.657 274.406 149.902 275.711 150.772L277.261 151.812C277.458 151.931 277.644 152.065 277.818 152.214C277.604 152.124 277.401 152.014 277.21 151.888C276.823 151.665 276.267 151.33 275.612 150.906C274.278 150.054 272.473 148.827 270.56 147.368C268.647 145.909 266.993 144.503 265.848 143.45C265.268 142.924 264.806 142.491 264.495 142.183C264.314 142.033 264.148 141.867 264 141.688V141.688Z" fill="white"/>
<path d="M248.472 173.748C248.472 173.81 241.347 172.534 232.586 170.897C223.826 169.259 216.729 167.876 216.729 167.813C216.729 167.751 223.854 169.027 232.615 170.665C241.375 172.302 248.487 173.685 248.472 173.748Z" fill="#263238"/>
<path d="M249.679 146.4C249.646 146.458 246.54 144.905 242.747 142.941C238.953 140.978 235.899 139.332 235.932 139.274C235.965 139.216 239.066 140.768 242.865 142.736C246.663 144.704 249.717 146.342 249.679 146.4Z" fill="#263238"/>
<path d="M273.411 137.859C273.36 137.899 270.051 134.048 266.017 129.256C261.983 124.464 258.765 120.55 258.817 120.51C258.868 120.47 262.181 124.321 266.211 129.113C270.24 133.905 273.463 137.819 273.411 137.859Z" fill="#263238"/>
<path d="M258.152 126.302C258.1 126.346 256.521 124.834 254.618 122.924C253.437 121.795 252.317 120.611 251.262 119.376C251.309 119.332 252.893 120.844 254.797 122.754C256.701 124.664 258.199 126.257 258.152 126.302Z" fill="#263238"/>
<path d="M294.439 127.627C294.412 127.554 294.394 127.477 294.387 127.4C294.359 127.221 294.326 127.003 294.283 126.739C294.194 126.128 294.071 125.307 293.925 124.307C293.624 122.255 293.185 119.399 292.629 116.302C292.073 113.206 291.508 110.372 291.079 108.342C290.871 107.351 290.702 106.557 290.574 105.932C290.523 105.669 290.476 105.455 290.443 105.276C290.42 105.201 290.411 105.123 290.414 105.044C290.449 105.116 290.474 105.19 290.49 105.268C290.537 105.442 290.598 105.656 290.664 105.915C290.815 106.477 291.013 107.293 291.248 108.306C291.72 110.332 292.318 113.143 292.874 116.267C293.43 119.39 293.817 122.228 294.099 124.299C294.227 125.329 294.321 126.164 294.378 126.739C294.4 127.007 294.418 127.23 294.434 127.409C294.448 127.481 294.449 127.555 294.439 127.627Z" fill="#263238"/>
<path d="M338.784 135.887C338.023 137.146 337.193 138.365 336.296 139.541C335.464 140.76 334.564 141.937 333.6 143.066C334.362 141.806 335.194 140.584 336.093 139.407C336.921 138.188 337.819 137.012 338.784 135.887Z" fill="#263238"/>
<path d="M329.665 152.669C329.665 152.669 326.965 139.082 331.319 133.571C335.674 128.06 341.857 124.232 342.38 118.038C342.94 111.278 341.216 103.652 344.901 99.962C344.901 99.962 339.825 99.8504 338.803 108.253C337.78 116.655 335.636 119.167 330.066 121.706C324.495 124.245 313.336 128.06 313.247 145.632L322.954 148.934L329.665 152.669Z" fill="#FF725E"/>
<path d="M328.27 129.363C328.225 129.422 328.173 129.476 328.115 129.524L327.643 129.97C327.436 130.148 327.172 130.371 326.904 130.652C326.635 130.934 326.291 131.224 325.961 131.598C325.631 131.973 325.264 132.357 324.92 132.817C324.576 133.276 324.213 133.767 323.845 134.298C322.322 136.632 321.312 139.234 320.876 141.946C320.787 142.575 320.697 143.173 320.674 143.731C320.65 144.289 320.626 144.815 320.626 145.297C320.626 145.779 320.664 146.19 320.678 146.587C320.692 146.914 320.724 147.24 320.773 147.564C320.801 147.809 320.824 148.01 320.843 148.18C320.853 148.252 320.853 148.326 320.843 148.398C320.816 148.329 320.797 148.257 320.787 148.184C320.758 148.019 320.716 147.818 320.674 147.573C320.608 147.251 320.562 146.927 320.537 146.6C320.509 146.216 320.443 145.784 320.447 145.297C320.417 144.771 320.417 144.244 320.447 143.718C320.447 143.151 320.546 142.549 320.631 141.91C321.048 139.152 322.081 136.51 323.661 134.16C324.002 133.647 324.37 133.151 324.764 132.674C325.098 132.253 325.455 131.85 325.834 131.465C326.164 131.094 326.512 130.804 326.8 130.532C327.044 130.299 327.302 130.08 327.573 129.876L328.082 129.483C328.204 129.399 328.266 129.354 328.27 129.363Z" fill="#263238"/>
<path d="M340.81 107.797C340.821 107.871 340.821 107.946 340.81 108.02V108.667C340.81 109.225 340.81 110.006 340.74 111.023C340.652 113.618 340.26 116.195 339.571 118.707C339.356 119.427 339.039 120.116 338.628 120.755C338.241 121.343 337.799 121.897 337.309 122.411C336.468 123.267 335.545 124.049 334.552 124.745C333.708 125.342 332.997 125.78 332.502 126.083C332.252 126.23 332.059 126.342 331.922 126.413C331.786 126.485 331.715 126.525 331.71 126.516C331.945 126.333 332.19 126.163 332.445 126.007C332.917 125.686 333.624 125.231 334.444 124.62C335.412 123.912 336.314 123.127 337.139 122.273C337.616 121.764 338.047 121.217 338.426 120.639C338.824 120.017 339.13 119.346 339.335 118.645C340.02 116.148 340.434 113.591 340.57 111.015C340.631 110.051 340.683 109.261 340.721 108.672C340.721 108.418 340.754 108.226 340.763 108.034C340.766 107.953 340.782 107.874 340.81 107.797V107.797Z" fill="#263238"/>
<path d="M316.828 146.939C316.793 146.745 316.777 146.548 316.781 146.35C316.781 145.967 316.781 145.413 316.781 144.731C316.982 141.16 318 137.674 319.764 134.512C320.103 133.91 320.4 133.433 320.622 133.116C320.724 132.943 320.846 132.782 320.985 132.634C320.911 132.82 320.816 132.998 320.702 133.165C320.504 133.495 320.231 133.981 319.915 134.588C319.09 136.174 318.423 137.829 317.921 139.532C317.436 141.238 317.12 142.983 316.979 144.744C316.922 145.418 316.889 145.971 316.88 146.35C316.885 146.548 316.868 146.745 316.828 146.939Z" fill="#263238"/>
<path d="M326.06 149.96C325.973 149.797 325.907 149.625 325.862 149.447C325.749 149.112 325.617 148.622 325.48 148.006C324.809 144.774 325.038 141.432 326.145 138.31C326.311 137.839 326.503 137.377 326.72 136.926C326.791 136.756 326.879 136.593 326.984 136.44C327.026 136.44 326.696 137.167 326.31 138.359C325.306 141.472 325.082 144.765 325.655 147.975C325.89 149.202 326.121 149.947 326.06 149.96Z" fill="#263238"/>
<path d="M328.313 124.531C325.9 124.782 323.622 125.715 321.776 127.208C320.6 128.143 319.576 129.238 318.737 130.456C317.273 132.718 316.215 135.194 315.608 137.783C315.353 138.769 315.174 139.568 315.056 140.139L314.915 140.782C314.899 140.858 314.877 140.932 314.849 141.005C314.837 140.928 314.837 140.85 314.849 140.773C314.849 140.625 314.901 140.402 314.948 140.121C315.037 139.559 315.188 138.742 315.419 137.743C315.984 135.117 317.033 132.607 318.52 130.327C319.369 129.086 320.415 127.977 321.621 127.038C322.604 126.271 323.706 125.649 324.887 125.195C325.68 124.891 326.512 124.684 327.361 124.58C327.592 124.549 327.825 124.531 328.058 124.526C328.143 124.515 328.229 124.517 328.313 124.531V124.531Z" fill="white"/>
<path d="M339.147 109.721C339.192 109.866 339.219 110.016 339.227 110.167C339.271 110.591 339.288 111.017 339.279 111.443C339.228 114.291 338.265 117.058 336.517 119.377C336.257 119.724 335.976 120.056 335.674 120.372C335.569 120.494 335.451 120.605 335.32 120.702C335.283 120.671 335.749 120.171 336.376 119.283C338.014 116.96 338.957 114.26 339.104 111.47C339.161 110.39 339.104 109.725 339.147 109.721Z" fill="white"/>
</g>
</g>
<defs>
<filter id="filter0_d_1348_9391" x="-45" y="-35" width="435" height="280" filterUnits="userSpaceOnUse" color-interpolation-filters="sRGB">
<feFlood flood-opacity="0" result="BackgroundImageFix"/>
<feColorMatrix in="SourceAlpha" type="matrix" values="0 0 0 0 0 0 0 0 0 0 0 0 0 0 0 0 0 0 127 0" result="hardAlpha"/>
<feOffset dy="10"/>
<feGaussianBlur stdDeviation="22.5"/>
<feComposite in2="hardAlpha" operator="out"/>
<feColorMatrix type="matrix" values="0 0 0 0 0.176471 0 0 0 0 0.176471 0 0 0 0 0.176471 0 0 0 0.1 0"/>
<feBlend mode="normal" in2="BackgroundImageFix" result="effect1_dropShadow_1348_9391"/>
<feBlend mode="normal" in="SourceGraphic" in2="effect1_dropShadow_1348_9391" result="shape"/>
</filter>
<filter id="filter1_f_1348_9391" x="-29.525" y="11.2331" width="169.45" height="67.3668" filterUnits="userSpaceOnUse" color-interpolation-filters="sRGB">
<feFlood flood-opacity="0" result="BackgroundImageFix"/>
<feBlend mode="normal" in="SourceGraphic" in2="BackgroundImageFix" result="shape"/>
<feGaussianBlur stdDeviation="0.1" result="effect1_foregroundBlur_1348_9391"/>
</filter>
<clipPath id="clip0_1348_9391">
<rect width="345" height="190" rx="10" fill="white"/>
</clipPath>
</defs>
</svg>
