<svg width="345" height="190" viewBox="0 0 345 190" fill="none" xmlns="http://www.w3.org/2000/svg">
<g clip-path="url(#clip0_1012_9333)">
<g clip-path="url(#clip1_1012_9333)" filter="url(#filter0_d_1012_9333)">
<path d="M226.19 148.998C283.076 69.7884 395.907 48.1982 478.206 100.777C560.505 153.356 581.105 260.191 524.219 339.401C467.334 418.611 354.502 440.201 272.203 387.622C189.904 335.043 169.304 228.208 226.19 148.998Z" stroke="#E9E8E6"/>
<path d="M239.877 158.729C291.626 86.6724 394.268 67.0318 469.136 114.863C544.003 162.693 562.743 259.882 510.994 331.938C459.245 403.995 356.602 423.636 281.735 375.805C206.867 327.974 188.128 230.786 239.877 158.729Z" stroke="#E9E8E6"/>
<ellipse rx="5.04214" ry="5.03485" transform="matrix(-0.842772 -0.538424 0.583384 -0.812321 320.719 80.061)" fill="#E9E8E6"/>
<path d="M261.177 74.5126L253.396 88.2757C253.312 88.4236 253.264 88.5889 253.253 88.7599C253.243 88.9309 253.271 89.1035 253.336 89.2657C253.4 89.4278 253.5 89.5755 253.627 89.6983C253.755 89.8212 253.907 89.9163 254.074 89.9768L258.492 91.5723L261.177 74.5126Z" fill="#455A64"/>
<path d="M220.818 12.8993C215.555 12.869 210.335 13.4735 205.276 14.6992C235.155 15.4444 256.849 39.8738 257.913 69.1851C258.991 98.8659 238.427 122.327 208.045 122.168C193.786 122.109 179.885 116.626 169.288 106.883C175.337 116.308 183.751 124.117 193.688 129.531C203.626 134.945 214.739 137.773 225.918 137.734C237.097 137.694 247.95 134.788 257.392 129.306C266.833 123.823 274.534 115.957 279.723 106.493C284.912 97.0282 287.408 86.2973 286.962 75.3723C286.516 64.4473 283.144 53.7109 277.181 44.236C271.219 34.7612 262.876 26.8797 252.986 21.3793C243.096 15.8788 232.005 12.9521 220.822 12.8916L220.818 12.8993Z" fill="#455A64"/>
<path d="M267.331 73.316C267.675 73.6169 269.298 72.0271 271.877 71.7828C274.456 71.5384 276.525 72.7104 276.759 72.3539C276.876 72.1912 276.499 71.6258 275.586 71.0735C274.378 70.3732 272.985 70.0704 271.619 70.2112C270.264 70.3434 269.012 70.9177 268.061 71.8425C267.356 72.5621 267.168 73.1909 267.331 73.316Z" fill="#263238"/>
<path d="M266.664 63.2644C266.9 63.8649 269.127 63.6182 271.76 63.9688C274.393 64.3194 276.535 65.057 276.874 64.5291C277.02 64.2768 276.639 63.7068 275.769 63.115C274.609 62.3891 273.306 61.9251 271.958 61.7585C270.611 61.5919 269.254 61.7269 267.991 62.1533C267.036 62.5266 266.563 62.9876 266.664 63.2644Z" fill="#263238"/>
<path d="M258.361 90.7647C258.388 90.646 257.064 90.1796 254.898 89.5176C254.348 89.3616 253.836 89.1636 253.795 88.7762C253.754 88.3887 254.039 87.8148 254.399 87.2451C255.115 86.0253 255.876 84.7442 256.647 83.4019C259.789 77.914 262.165 73.3658 261.914 73.2343C261.662 73.1027 258.93 77.4383 255.804 82.9301L253.623 86.812C253.323 87.3935 252.86 88.0279 253.028 88.8914C253.082 89.0988 253.185 89.293 253.326 89.4591C253.468 89.6253 253.645 89.759 253.845 89.8501C254.143 89.9853 254.455 90.0834 254.775 90.142C256.954 90.6239 258.326 90.8757 258.361 90.7647Z" fill="#263238"/>
<g opacity="0.1">
<path d="M278.959 81.5428C278.275 81.0601 277.483 80.7575 276.662 80.6654C275.448 80.4996 274.225 80.6058 273.084 80.976C271.943 81.3462 270.914 81.9707 270.074 82.8029C269.416 83.4634 268.867 84.3933 269.144 85.3139C269.299 85.708 269.56 86.0571 269.898 86.3221C270.235 86.5872 270.637 86.7578 271.057 86.8149L272.925 87.1442C274.521 87.21 276.101 86.9749 277.579 86.4515C278.83 86.0328 280.047 84.9601 280.08 83.6411C280.072 83.2363 279.966 82.8347 279.771 82.4698C279.576 82.1048 279.297 81.787 278.959 81.5428V81.5428Z" fill="black"/>
</g>
<g opacity="0.1">
<path d="M270.528 91.167C270.258 90.7067 269.856 90.3324 269.376 90.0943C268.895 89.8562 268.359 89.7657 267.84 89.8351C267.321 89.9044 266.843 90.1303 266.471 90.4822C266.099 90.8342 265.851 91.2955 265.759 91.8041C265.651 92.6397 265.859 93.5001 266.342 94.2232C266.693 94.8224 267.195 95.3261 267.797 95.6829C268.165 95.9176 268.587 96.0509 269.016 96.0684C269.446 96.0858 269.866 95.9867 270.232 95.7819C270.597 95.577 270.894 95.2742 271.09 94.9065C271.286 94.5387 271.373 94.12 271.342 93.696C271.32 92.6898 270.896 91.7143 270.161 90.9827" fill="black"/>
</g>
<path d="M268.973 75.7394C268.958 76.1888 269.124 76.6331 269.436 76.9778C269.747 77.3225 270.18 77.5403 270.64 77.5848C270.865 77.6167 271.092 77.6046 271.308 77.5492C271.524 77.4937 271.724 77.3961 271.898 77.262C272.071 77.128 272.214 76.9602 272.317 76.7687C272.42 76.5772 272.483 76.3658 272.5 76.1469C272.515 75.6975 272.35 75.2528 272.039 74.9074C271.729 74.562 271.297 74.3432 270.836 74.2977C270.611 74.2663 270.384 74.2789 270.168 74.3348C269.952 74.3907 269.751 74.4886 269.577 74.6229C269.404 74.7572 269.261 74.9252 269.157 75.1169C269.053 75.3087 268.99 75.5203 268.973 75.7394V75.7394Z" fill="#263238"/>
<path d="M260.713 78.1702C260.761 78.1972 259.489 80.4665 257.872 83.2789C256.255 86.0914 254.915 88.3181 254.855 88.2871C254.795 88.2561 256.078 85.9716 257.696 83.1783C259.313 80.3851 260.653 78.1392 260.713 78.1702Z" fill="white"/>
<path d="M270.91 60.3919C270.307 60.489 269.693 60.5183 269.079 60.4792C268.466 60.5063 267.85 60.4666 267.241 60.361C267.844 60.2616 268.458 60.2323 269.072 60.2737C269.685 60.2443 270.302 60.2839 270.91 60.3919V60.3919Z" fill="white"/>
<path d="M230.882 20.6819C230.708 20.6077 230.542 20.5185 230.384 20.4153C230.072 20.2273 229.614 19.9725 229.04 19.6666C227.548 18.8707 225.995 18.1977 224.397 17.6548C222.804 17.1181 221.173 16.7113 219.521 16.4385C218.886 16.3344 218.368 16.262 218.009 16.2215C217.822 16.2075 217.637 16.178 217.454 16.1333C217.64 16.1146 217.827 16.1155 218.014 16.136C218.375 16.1377 218.897 16.2024 219.539 16.2909C221.214 16.5214 222.868 16.9119 224.478 17.4569C226.082 18.0044 227.632 18.7044 229.107 19.5465C229.674 19.8678 230.124 20.1459 230.425 20.3533C230.587 20.4488 230.74 20.5588 230.882 20.6819V20.6819Z" fill="white"/>
<path d="M281.843 95.8898C281.831 95.935 281.814 95.9788 281.792 96.0205C281.753 96.1166 281.702 96.2434 281.633 96.4048L281.003 97.8457C280.719 98.4758 280.404 99.2598 279.971 100.151L278.502 103.136C277.923 104.223 277.244 105.394 276.537 106.661L275.333 108.58C274.919 109.233 274.506 109.916 274.013 110.568L272.55 112.606C272.026 113.281 271.463 113.952 270.909 114.646C270.354 115.34 269.736 116.003 269.114 116.681L268.173 117.705C267.854 118.046 267.499 118.356 267.164 118.685C264.627 121.182 261.809 123.392 258.76 125.277C256.28 126.824 253.67 128.172 250.953 129.306C250.37 129.546 249.827 129.793 249.298 129.994L247.768 130.525L246.457 131.004L245.338 131.356L243.778 131.837L243.388 131.954L243.247 131.992C243.289 131.968 243.333 131.949 243.379 131.935L243.769 131.798L245.327 131.283L246.437 130.904L247.736 130.41L249.234 129.848C249.759 129.642 250.302 129.391 250.876 129.148C253.576 127.998 256.171 126.642 258.639 125.091C261.67 123.205 264.473 121.001 267 118.515C267.339 118.185 267.69 117.875 268.009 117.534L268.946 116.519C269.568 115.844 270.195 115.193 270.737 114.491C271.28 113.789 271.871 113.133 272.379 112.458L273.843 110.432C274.336 109.784 274.749 109.105 275.167 108.456L276.376 106.564C277.087 105.304 277.774 104.141 278.362 103.058L279.87 100.093C280.312 99.2208 280.638 98.4407 280.931 97.8184C281.224 97.196 281.443 96.7157 281.6 96.3738C281.674 96.2201 281.732 96.0934 281.78 95.9896C281.798 95.9548 281.819 95.9215 281.843 95.8898Z" fill="#263238"/>
<path d="M285.729 75.3524C285.748 75.4133 285.76 75.4763 285.762 75.5397C285.767 75.6887 285.799 75.8644 285.822 76.0822C285.876 76.5522 285.921 77.2284 285.953 78.0726C286.102 82.4704 285.474 86.8333 284.097 90.966C283.833 91.7559 283.598 92.3854 283.414 92.8127L283.206 93.3087C283.155 93.4193 283.126 93.4765 283.118 93.4727C283.125 93.4104 283.141 93.3499 283.167 93.2933L283.34 92.7858C283.5 92.347 283.715 91.7097 283.96 90.9159C285.258 86.7801 285.882 82.4461 285.809 78.0722C285.782 77.2318 285.76 76.5442 285.745 76.0858C285.738 75.8681 285.732 75.7038 285.727 75.5434C285.718 75.4797 285.719 75.4153 285.729 75.3524V75.3524Z" fill="#263238"/>
<path d="M284.755 69.3173C284.826 69.5869 284.866 69.8626 284.875 70.139C284.95 70.4057 284.997 70.6787 285.014 70.9532C284.838 70.7185 284.722 70.4475 284.674 70.1633C284.626 69.879 284.649 69.5901 284.739 69.321L284.755 69.3173Z" fill="#263238"/>
<path d="M308.087 130.529L305.988 128.014L309.19 129.061L309.895 125.767L310.987 128.769L314.242 127.248L312.514 130.095L315.675 131.537L312.254 131.868L312.969 135.139L310.53 132.852L308.583 135.567L308.722 132.292L305.325 132.468L308.087 130.529Z" fill="#FF725E"/>
<path d="M278.878 34.0707L275.38 29.8783L280.717 31.6238L281.891 26.1333L283.712 31.1377L289.137 28.6024L286.257 33.3471L291.525 35.7499L285.823 36.3023L287.014 41.7541L282.949 37.9428L279.705 42.4666L279.936 37.0093L274.275 37.3021L278.878 34.0707Z" fill="white"/>
<path d="M122.591 109.341L121.192 107.665L123.327 108.363L123.796 106.167L124.525 108.168L126.695 107.154L125.543 109.052L127.65 110.013L125.369 110.234L125.846 112.415L124.22 110.89L122.922 112.7L123.015 110.517L120.75 110.634L122.591 109.341Z" fill="white"/>
<path d="M46.575 41.6487C46.5753 41.8103 46.5249 41.9683 46.4304 42.1028C46.3358 42.2373 46.2012 42.3422 46.0436 42.4043C45.886 42.4663 45.7125 42.4827 45.5451 42.4513C45.3777 42.42 45.2239 42.3423 45.1031 42.2281C44.9824 42.114 44.9001 41.9685 44.8667 41.81C44.8333 41.6516 44.8502 41.4873 44.9155 41.338C44.9807 41.1887 45.0913 41.061 45.2331 40.9712C45.375 40.8814 45.5418 40.8335 45.7125 40.8335C45.941 40.8335 46.1601 40.9193 46.3218 41.0722C46.4835 41.225 46.5746 41.4324 46.575 41.6487V41.6487Z" fill="#E0E0E0"/>
<path d="M124.2 69.4125C124.201 69.8972 124.05 70.3713 123.766 70.7748C123.482 71.1783 123.079 71.493 122.606 71.6791C122.133 71.8652 121.613 71.9143 121.111 71.8202C120.608 71.7262 120.147 71.4932 119.784 71.1507C119.422 70.8083 119.175 70.3717 119.075 69.8964C118.975 69.421 119.026 68.9282 119.222 68.4802C119.417 68.0323 119.749 67.6494 120.175 67.38C120.6 67.1106 121.101 66.9668 121.613 66.9668C122.298 66.9668 122.955 67.2243 123.441 67.6829C123.926 68.1414 124.199 68.7635 124.2 69.4125V69.4125Z" fill="#E0E0E0"/>
<path d="M58.65 138.831C58.6506 139.154 58.55 139.47 58.3608 139.739C58.1716 140.008 57.9024 140.218 57.5872 140.342C57.2721 140.466 56.9252 140.499 56.5903 140.436C56.2555 140.373 55.9479 140.218 55.7063 139.989C55.4648 139.761 55.3002 139.47 55.2334 139.153C55.1666 138.836 55.2006 138.508 55.331 138.209C55.4615 137.911 55.6826 137.655 55.9663 137.476C56.2501 137.296 56.5837 137.2 56.925 137.2C57.382 137.2 57.8203 137.372 58.1437 137.678C58.4671 137.983 58.6492 138.398 58.65 138.831V138.831Z" fill="#E0E0E0"/>
<path d="M102.665 136.644C102.665 136.644 99.1887 136.792 96.9612 136.891C22.1023 140.197 296.218 138.852 289.892 138.605C283.566 138.359 280.242 132.331 280.242 132.331C276.179 120.785 259.007 119.354 255.164 126.113C249.21 121.041 241.384 118.103 234.379 121.146C234.548 119.104 234.244 117.052 233.489 115.133C232.733 113.214 231.545 111.474 230.006 110.036C228.562 108.745 226.782 107.841 224.848 107.415C222.914 106.988 220.896 107.055 218.998 107.609C212.644 96.4991 199.604 90.2428 187.626 92.5652C175.647 94.8876 165.48 105.618 163.138 118.425C156.994 114.112 147.537 117.287 144.715 124.539C142.387 123.056 139.712 122.133 136.921 121.851C134.131 121.568 131.311 121.935 128.704 122.918C123.5 124.909 120.968 128.596 119.067 134.161C118.709 133.25 118.127 132.434 117.371 131.778C116.614 131.122 115.704 130.646 114.715 130.389C113.726 130.131 112.687 130.1 111.683 130.298C110.679 130.495 109.739 130.916 108.94 131.525C106.858 133.071 106.368 136.009 102.665 136.644Z" fill="url(#paint0_linear_1012_9333)"/>
<rect y="165.831" width="345" height="78.9195" fill="url(#paint1_linear_1012_9333)" fill-opacity="0.52"/>
</g>
</g>
<defs>
<filter id="filter0_d_1012_9333" x="-45" y="-35" width="435" height="280" filterUnits="userSpaceOnUse" color-interpolation-filters="sRGB">
<feFlood flood-opacity="0" result="BackgroundImageFix"/>
<feColorMatrix in="SourceAlpha" type="matrix" values="0 0 0 0 0 0 0 0 0 0 0 0 0 0 0 0 0 0 127 0" result="hardAlpha"/>
<feOffset dy="10"/>
<feGaussianBlur stdDeviation="22.5"/>
<feComposite in2="hardAlpha" operator="out"/>
<feColorMatrix type="matrix" values="0 0 0 0 0.176471 0 0 0 0 0.176471 0 0 0 0 0.176471 0 0 0 0.1 0"/>
<feBlend mode="normal" in2="BackgroundImageFix" result="effect1_dropShadow_1012_9333"/>
<feBlend mode="normal" in="SourceGraphic" in2="effect1_dropShadow_1012_9333" result="shape"/>
</filter>
<linearGradient id="paint0_linear_1012_9333" x1="187.71" y1="92.084" x2="187.71" y2="202.87" gradientUnits="userSpaceOnUse">
<stop stop-color="#011D43"/>
<stop offset="0.645833" stop-color="#7B7E82"/>
<stop offset="1" stop-color="white"/>
</linearGradient>
<linearGradient id="paint1_linear_1012_9333" x1="173.028" y1="244.75" x2="173.028" y2="174.322" gradientUnits="userSpaceOnUse">
<stop offset="0.213542" stop-color="#3C3C3C" stop-opacity="0.99"/>
<stop offset="1" stop-color="#3C3C3C" stop-opacity="0"/>
</linearGradient>
<clipPath id="clip0_1012_9333">
<rect width="345" height="190" fill="white"/>
</clipPath>
<clipPath id="clip1_1012_9333">
<rect width="345" height="190" fill="white"/>
</clipPath>
</defs>
</svg>
