<svg width="345" height="190" viewBox="0 0 345 190" fill="none" xmlns="http://www.w3.org/2000/svg">
<g clip-path="url(#clip0_1012_9332)">
<g clip-path="url(#clip1_1012_9332)" filter="url(#filter0_d_1012_9332)">
<path d="M299.672 90.0935C199.583 92.2618 116.409 17.2238 113.841 -77.4503C111.272 -172.124 190.279 -250.676 290.368 -252.844C390.456 -255.012 473.63 -179.974 476.199 -85.3003C478.768 9.37385 399.761 87.9252 299.672 90.0935Z" stroke="#E9E8E6"/>
<path d="M300.093 73.7743C209.04 75.7468 133.378 7.48323 131.042 -78.6386C128.705 -164.76 200.576 -236.22 291.629 -238.193C382.683 -240.165 458.344 -171.902 460.681 -85.7798C463.017 0.342057 391.147 71.8017 300.093 73.7743Z" stroke="#E9E8E6"/>
<ellipse rx="4.89188" ry="5.16743" transform="matrix(0.027121 0.999636 -0.999769 0.0216586 185.515 55.5093)" fill="#E9E8E6"/>
<path d="M63.0063 127.859C63.0063 127.859 59.2799 128.018 56.8924 128.123C-23.3447 131.675 270.464 130.229 263.684 129.965C256.904 129.7 253.341 123.226 253.341 123.226C248.986 110.826 230.58 109.288 226.461 116.548C220.079 111.101 211.691 107.945 204.183 111.213C204.364 109.02 204.038 106.816 203.229 104.755C202.419 102.694 201.145 100.826 199.496 99.2805C197.947 97.8947 196.04 96.9233 193.967 96.4655C191.894 96.0076 189.731 96.0796 187.697 96.6741C180.886 84.742 166.91 78.0225 154.071 80.5168C141.232 83.0112 130.334 94.5361 127.824 108.291C121.238 103.658 111.102 107.069 108.077 114.858C105.582 113.264 102.714 112.273 99.7236 111.97C96.733 111.667 93.7097 112.06 90.9156 113.117C85.338 115.255 82.6243 119.215 80.5864 125.191C80.2024 124.214 79.5794 123.336 78.7684 122.632C77.9575 121.928 76.9818 121.416 75.9219 121.14C74.8619 120.864 73.748 120.83 72.6717 121.042C71.5955 121.255 70.5878 121.707 69.7316 122.361C67.5005 124.02 66.975 127.177 63.0063 127.859Z" fill="white"/>
<path d="M267.202 103.539C267.202 103.539 266.27 103.58 265.673 103.607C245.614 104.523 319.066 104.15 317.371 104.082C315.676 104.014 314.785 102.343 314.785 102.343C313.696 99.143 309.095 98.7463 308.065 100.62C306.47 99.214 304.373 98.3995 302.496 99.2429C302.541 98.677 302.46 98.1082 302.257 97.5764C302.055 97.0445 301.736 96.5623 301.324 96.1636C300.937 95.806 300.46 95.5553 299.942 95.4371C299.424 95.319 298.883 95.3376 298.374 95.491C296.672 92.4117 293.177 90.6777 289.968 91.3214C286.758 91.9651 284.034 94.9392 283.406 98.4888C281.76 97.2934 279.226 98.1735 278.469 100.183C277.845 99.7724 277.129 99.5166 276.381 99.4383C275.633 99.36 274.877 99.4616 274.179 99.7342C272.785 100.286 272.106 101.308 271.597 102.85C271.501 102.598 271.345 102.372 271.142 102.19C270.939 102.008 270.695 101.876 270.43 101.805C270.165 101.733 269.887 101.725 269.618 101.78C269.349 101.834 269.097 101.951 268.883 102.12C268.325 102.548 268.194 103.363 267.202 103.539Z" fill="#F2F2F2"/>
<path d="M277.725 157.431C277.725 157.582 276.037 157.003 272.959 156.425C268.657 155.607 264.234 155.488 259.888 156.072C253.437 156.879 247.356 159.327 242.324 163.143C236.154 167.817 231.819 174.237 229.987 181.412V181.613L229.307 184.004L228.326 181.739C225.312 174.964 220.147 169.191 213.512 165.182C208.094 161.904 201.862 159.955 195.403 159.52C191.035 159.2 186.64 159.531 182.386 160.501C179.363 161.181 177.757 161.784 177.675 161.659C178.015 161.416 178.391 161.221 178.792 161.08C179.897 160.617 181.034 160.222 182.195 159.897C187.541 158.382 193.177 157.946 198.721 158.619C204.265 159.292 209.588 161.058 214.329 163.798C221.303 167.923 226.732 173.932 229.879 181.009L228.245 181.135V180.934C230.19 173.446 234.78 166.77 241.289 161.961C245.703 158.722 250.874 156.479 256.39 155.408C261.907 154.338 267.617 154.471 273.068 155.796C274.251 156.069 275.408 156.431 276.527 156.878C276.955 157.004 277.359 157.191 277.725 157.431V157.431Z" fill="white"/>
<path d="M292.225 43.6763C292.202 43.7397 291.63 43.2822 290.514 42.6484C288.955 41.759 287.243 41.1476 285.452 40.8416C282.804 40.3619 280.05 40.6192 277.497 41.5848C274.368 42.7664 271.689 44.9147 269.875 47.6983L269.844 47.783L269.212 48.7014L269.175 47.625C269.031 44.3946 267.893 41.3128 265.91 38.7854C264.291 36.7201 262.15 35.1101 259.689 34.1075C258.029 33.4187 256.258 33.0002 254.445 32.8681C253.158 32.7701 252.437 32.8201 252.424 32.7569C252.594 32.6981 252.771 32.6638 252.95 32.6553C253.453 32.6008 253.958 32.579 254.463 32.5901C256.786 32.6316 259.059 33.1636 261.125 34.15C263.192 35.1364 265.005 36.5542 266.441 38.3073C268.539 40.9262 269.745 44.1412 269.894 47.5153L269.235 47.3608L269.266 47.2762C271.173 44.3756 273.99 42.1519 277.273 40.9564C279.496 40.1553 281.863 39.8685 284.185 40.1187C286.508 40.3689 288.722 41.1492 290.653 42.3978C291.074 42.663 291.471 42.9618 291.841 43.2915C291.989 43.3991 292.118 43.5288 292.225 43.6763V43.6763Z" fill="white"/>
<path d="M106.95 34.1979C106.95 34.1979 106.187 35.0366 104.802 36.5195C102.874 38.6358 101.131 40.9002 99.5915 43.2899C94.4358 51.191 91.7299 60.329 91.7882 69.6423C91.7948 69.7516 91.7948 69.8612 91.7882 69.9705H90.9876C90.1777 64.9701 88.4571 60.1443 85.904 55.7125C83.8562 52.091 81.2896 48.7607 78.2786 45.8182C76.2471 43.8361 74.0213 42.0451 71.6318 40.4699C69.9415 39.3395 68.9629 38.7804 69.0011 38.7196C69.2645 38.8036 69.5163 38.9179 69.7509 39.0599C70.2211 39.3274 70.9456 39.6555 71.8098 40.2755C74.2919 41.7848 76.597 43.5453 78.6853 45.5265C85.6862 52.1093 90.2775 60.6785 91.7755 69.9583L90.9748 70.0191V69.6423C90.9017 60.1983 93.7204 50.9404 99.0832 43.0104C100.679 40.6188 102.518 38.3836 104.573 36.3372C105.272 35.5957 105.908 35.1217 106.302 34.7206C106.696 34.3194 106.925 34.1736 106.95 34.1979Z" fill="white"/>
<rect y="166.321" width="345" height="78.6789" fill="url(#paint0_linear_1012_9332)" fill-opacity="0.52"/>
</g>
</g>
<defs>
<filter id="filter0_d_1012_9332" x="-45" y="-35" width="435" height="280" filterUnits="userSpaceOnUse" color-interpolation-filters="sRGB">
<feFlood flood-opacity="0" result="BackgroundImageFix"/>
<feColorMatrix in="SourceAlpha" type="matrix" values="0 0 0 0 0 0 0 0 0 0 0 0 0 0 0 0 0 0 127 0" result="hardAlpha"/>
<feOffset dy="10"/>
<feGaussianBlur stdDeviation="22.5"/>
<feComposite in2="hardAlpha" operator="out"/>
<feColorMatrix type="matrix" values="0 0 0 0 0.176471 0 0 0 0 0.176471 0 0 0 0 0.176471 0 0 0 0.1 0"/>
<feBlend mode="normal" in2="BackgroundImageFix" result="effect1_dropShadow_1012_9332"/>
<feBlend mode="normal" in="SourceGraphic" in2="effect1_dropShadow_1012_9332" result="shape"/>
</filter>
<linearGradient id="paint0_linear_1012_9332" x1="173.028" y1="245" x2="173.028" y2="174.787" gradientUnits="userSpaceOnUse">
<stop offset="0.213542" stop-color="#3C3C3C" stop-opacity="0.99"/>
<stop offset="1" stop-color="#3C3C3C" stop-opacity="0"/>
</linearGradient>
<clipPath id="clip0_1012_9332">
<rect width="345" height="190" fill="white"/>
</clipPath>
<clipPath id="clip1_1012_9332">
<rect width="345" height="190" fill="white"/>
</clipPath>
</defs>
</svg>
